<?xml version="1.0" standalone="no"?>
<!DOCTYPE svg PUBLIC "-//W3C//DTD SVG 20010904//EN"
 "http://www.w3.org/TR/2001/REC-SVG-20010904/DTD/svg10.dtd">
<svg version="1.0" xmlns="http://www.w3.org/2000/svg"
 width="1024.000000pt" height="1024.000000pt" viewBox="0 0 1024.000000 1024.000000"
 preserveAspectRatio="xMidYMid meet">

<g transform="translate(0.000000,1024.000000) scale(0.100000,-0.100000)"
fill="#000000" stroke="none">
<path d="M4998 8555 c7 -60 28 -104 55 -116 20 -9 34 -6 82 18 l57 29 -45 18
c-31 11 -53 29 -70 55 -20 31 -31 38 -55 37 -28 -1 -29 -2 -24 -41z"/>
<path d="M4965 8046 c3 -20 7 -52 10 -72 5 -40 48 -104 71 -104 8 0 34 10 57
22 23 12 55 24 72 28 l30 6 -48 23 c-45 22 -97 80 -97 108 0 8 -13 13 -34 13
-19 0 -41 3 -50 6 -12 5 -14 -1 -11 -30z"/>
<path d="M6160 7908 c0 -7 6 -22 14 -33 9 -13 15 -59 18 -135 3 -97 8 -124 29
-170 28 -61 94 -142 145 -179 l33 -23 33 25 c57 43 119 69 206 86 l83 17 -63
34 c-153 81 -223 158 -254 280 l-18 70 -46 0 c-42 0 -121 17 -162 35 -12 5
-18 3 -18 -7z"/>
<path d="M5599 7799 c12 -12 25 -18 28 -15 4 3 -2 13 -13 21 -29 22 -41 18
-15 -6z"/>
<path d="M5635 7773 c-16 -12 -16 -14 -3 -10 12 4 24 -3 38 -24 12 -16 26 -27
31 -23 5 3 12 -2 15 -10 3 -9 11 -16 16 -16 6 0 7 7 4 16 -4 10 -2 13 7 8 6
-4 3 2 -7 14 -13 15 -23 19 -31 12 -13 -11 -25 -4 -25 14 0 6 5 4 10 -4 5 -8
10 -10 10 -4 0 6 -7 17 -15 24 -8 7 -15 9 -15 4 0 -5 -4 -4 -8 3 -5 8 -12 7
-27 -4z"/>
<path d="M6853 7780 c2 -3 10 -21 19 -41 27 -58 40 -64 90 -38 l43 22 -32 13
c-17 8 -38 22 -45 33 -10 14 -24 20 -46 18 -18 -1 -31 -4 -29 -7z"/>
<path d="M5662 7701 c18 -27 37 -47 42 -44 5 4 6 1 2 -5 -8 -13 3 -64 13 -58
12 8 12 -156 0 -207 -7 -29 -23 -71 -36 -95 -21 -37 -22 -46 -11 -60 11 -15
11 -15 -3 -4 -14 10 -18 10 -23 -4 -3 -9 -3 -20 0 -25 3 -6 0 -17 -7 -25 -6
-8 -10 -17 -7 -19 8 -9 58 20 58 33 0 8 9 16 20 19 10 3 26 15 33 27 13 19 13
25 1 41 -8 10 -13 28 -13 39 1 20 2 20 6 2 5 -18 6 -18 24 5 14 19 19 20 19 7
0 -9 -7 -24 -16 -32 -14 -15 -14 -16 0 -16 9 0 16 6 17 13 0 6 4 3 9 -8 6 -13
7 -3 3 28 -4 31 -2 47 5 47 6 0 9 -7 6 -15 -4 -8 -2 -21 4 -28 5 -6 12 -21 14
-32 2 -11 10 12 18 51 14 78 10 197 -8 229 -6 11 -18 37 -27 59 -12 31 -18 36
-29 27 -11 -9 -16 -9 -22 0 -4 7 -3 9 4 5 16 -10 25 13 12 29 -16 19 -30 10
-31 -18 0 -22 0 -22 -10 2 -6 16 -14 21 -25 17 -15 -6 -15 -4 -3 11 8 9 9 14
2 10 -7 -4 -23 4 -37 18 -38 38 -40 30 -4 -24z m131 -106 c-3 -9 -8 -14 -10
-11 -3 3 -2 9 2 15 9 16 15 13 8 -4z m47 -205 c0 -5 -5 -10 -11 -10 -5 0 -7 5
-4 10 3 6 8 10 11 10 2 0 4 -4 4 -10z m-87 -35 c-3 -9 -8 -14 -10 -11 -3 3 -2
9 2 15 9 16 15 13 8 -4z m74 -37 c-3 -7 -5 -2 -5 12 0 14 2 19 5 13 2 -7 2
-19 0 -25z m-100 -64 c-3 -3 -12 -4 -19 -1 -8 3 -5 6 6 6 11 1 17 -2 13 -5z"/>
<path d="M3785 7676 c11 -63 36 -106 59 -106 6 0 33 11 59 24 l49 23 -35 22
c-23 14 -40 35 -47 56 -10 29 -16 35 -40 35 -16 0 -35 3 -43 6 -13 5 -13 -3
-2 -60z"/>
<path d="M4374 7721 c3 -9 8 -40 11 -70 5 -38 15 -62 35 -84 l28 -32 46 23
c26 12 53 22 61 22 8 0 15 5 15 10 0 6 -4 10 -9 10 -18 0 -74 55 -87 85 -10
26 -21 33 -59 42 -40 9 -45 8 -41 -6z"/>
<path d="M4771 7585 c16 -87 31 -98 94 -68 42 20 43 26 10 41 -13 6 -31 25
-40 42 -12 23 -22 30 -44 30 -28 0 -28 0 -20 -45z"/>
<path d="M7073 7284 c3 -16 8 -50 12 -76 6 -49 37 -98 60 -98 8 0 34 9 57 19
24 11 51 22 62 25 15 5 9 12 -30 39 -29 19 -57 47 -67 70 -14 27 -25 37 -42
37 -13 0 -31 3 -40 7 -14 5 -16 1 -12 -23z"/>
<path d="M5975 7248 c-18 -125 -50 -208 -118 -308 -55 -81 -208 -236 -314
-317 -34 -26 -60 -53 -58 -60 2 -7 -1 -10 -8 -8 -7 3 -31 -12 -55 -33 -23 -20
-65 -55 -92 -76 -28 -22 -50 -45 -50 -53 0 -7 -4 -12 -10 -10 -28 7 -204 -198
-283 -328 -143 -239 -175 -523 -91 -814 19 -64 132 -336 149 -359 1 -1 0 44
-3 101 -5 125 10 251 45 361 91 289 326 563 649 756 196 117 291 187 380 275
111 110 169 216 187 338 21 150 -37 316 -155 443 -53 56 -146 134 -161 134 -3
0 -8 -19 -12 -42z m-642 -827 c-9 -12 -22 -21 -27 -21 -5 0 1 11 14 25 28 30
39 26 13 -4z"/>
<path d="M3870 7213 c0 -5 7 -17 15 -27 10 -14 15 -44 15 -95 0 -42 4 -92 10
-111 13 -47 74 -133 115 -165 l34 -25 47 30 c60 37 145 70 184 70 17 0 30 3
30 8 0 4 -36 24 -80 45 -92 43 -141 97 -166 183 l-15 52 -63 7 c-35 3 -75 13
-91 21 -31 16 -35 17 -35 7z"/>
<path d="M5603 7177 c-25 -24 -31 -43 -10 -31 8 5 8 3 -2 -9 -7 -9 -17 -14
-22 -11 -5 3 -6 -2 -3 -10 3 -8 12 -17 21 -20 11 -4 13 -2 10 9 -4 8 -2 17 4
20 5 4 8 2 7 -3 -2 -6 1 -12 6 -13 12 -5 17 29 5 36 -5 4 -2 17 7 31 20 30 7
30 -23 1z"/>
<path d="M5710 7190 c0 -5 5 -10 10 -10 6 0 10 5 10 10 0 6 -4 10 -10 10 -5 0
-10 -4 -10 -10z"/>
<path d="M5785 7189 c-4 -6 -5 -12 -2 -15 2 -3 7 2 10 11 7 17 1 20 -8 4z"/>
<path d="M5538 7108 c-5 -15 18 -41 33 -36 6 2 2 13 -9 26 -14 16 -21 19 -24
10z"/>
<path d="M5505 7080 c-3 -5 -1 -10 4 -10 6 0 11 5 11 10 0 6 -2 10 -4 10 -3 0
-8 -4 -11 -10z"/>
<path d="M5459 7033 c-13 -16 -12 -17 4 -4 9 7 17 15 17 17 0 8 -8 3 -21 -13z"/>
<path d="M7545 6983 c13 -87 32 -101 94 -75 23 9 41 20 41 23 0 3 -11 11 -26
17 -14 7 -32 28 -40 47 -12 29 -19 35 -45 35 l-31 0 7 -47z"/>
<path d="M5410 6980 c-9 -6 -10 -10 -3 -10 6 0 15 5 18 10 8 12 4 12 -15 0z"/>
<path d="M5410 6950 c-9 -6 -10 -10 -3 -10 6 0 15 5 18 10 8 12 4 12 -15 0z"/>
<path d="M5436 6933 c-6 -14 -5 -15 5 -6 7 7 10 15 7 18 -3 3 -9 -2 -12 -12z"/>
<path d="M6475 6874 c4 -10 11 -55 15 -99 9 -107 47 -179 121 -231 l37 -25 43
26 c51 33 141 65 183 66 27 0 21 5 -47 38 -42 20 -91 51 -108 67 -32 30 -79
112 -79 138 0 10 -18 15 -67 18 -38 3 -77 9 -87 13 -17 7 -18 6 -11 -11z"/>
<path d="M5235 6789 c-4 -6 -5 -12 -2 -15 2 -3 7 2 10 11 7 17 1 20 -8 4z"/>
<path d="M5060 6705 c-7 -9 -8 -15 -2 -15 5 0 12 7 16 15 3 8 4 15 2 15 -2 0
-9 -7 -16 -15z"/>
<path d="M3665 6684 c4 -10 11 -51 15 -90 7 -79 42 -152 86 -180 23 -16 28
-15 92 14 37 17 84 34 106 38 l38 7 -47 22 c-26 13 -60 36 -77 52 -31 29 -68
92 -68 116 0 10 -17 16 -57 20 -32 3 -67 9 -77 13 -16 6 -18 4 -11 -12z"/>
<path d="M7221 6585 c5 -25 13 -54 19 -64 13 -25 47 -36 65 -21 7 6 26 15 41
19 l27 7 -37 22 c-21 13 -43 36 -49 52 -9 25 -17 30 -43 30 l-31 0 8 -45z"/>
<path d="M6405 6339 c9 -63 13 -73 34 -86 16 -10 27 -9 60 5 45 19 50 28 22
37 -11 3 -29 21 -40 40 -11 19 -27 35 -35 35 -8 0 -22 3 -31 6 -14 6 -16 1
-10 -37z"/>
<path d="M3302 6329 c29 -92 44 -102 103 -68 l37 22 -30 13 c-16 6 -36 21 -44
33 -8 11 -29 24 -46 27 l-31 6 11 -33z"/>
<path d="M6925 6213 c20 -67 37 -75 95 -43 l35 18 -27 11 c-15 5 -34 22 -44
36 -11 17 -25 25 -45 25 l-28 0 14 -47z"/>
<path d="M3600 6125 c0 -2 7 -23 16 -44 19 -49 42 -58 84 -32 l32 19 -30 16
c-16 8 -32 22 -35 31 -6 13 -67 23 -67 10z"/>
<path d="M4083 5917 c-18 -13 -50 -32 -72 -43 -23 -10 -41 -24 -41 -29 0 -20
92 -139 159 -206 36 -36 129 -113 206 -171 181 -136 261 -208 390 -348 87 -94
184 -221 272 -356 7 -11 -37 78 -96 197 -151 297 -189 426 -192 647 -1 57 -6
102 -11 102 -5 0 -7 -14 -4 -32 6 -33 6 -33 -5 -5 -9 22 -14 26 -25 16 -14
-12 -18 -5 -15 31 0 10 -1 11 -5 3 -8 -18 -68 -17 -61 1 3 7 -4 21 -15 30 -19
17 -20 17 -16 -11 3 -15 3 -22 1 -15 -3 6 -9 12 -14 12 -5 0 -9 12 -9 26 0 14
-4 23 -10 19 -6 -4 -8 -10 -5 -15 3 -5 -2 -16 -11 -24 -10 -11 -13 -23 -8 -34
6 -15 8 -14 11 6 3 12 9 22 14 22 28 0 -11 -69 -41 -72 -14 -2 -23 -7 -20 -13
3 -5 9 -9 13 -7 5 1 6 -2 2 -8 -4 -6 -15 -4 -31 6 -27 18 -32 26 -10 18 8 -3
17 -1 21 5 3 6 1 11 -4 11 -6 0 -11 5 -11 10 0 14 28 12 33 -2 2 -7 8 -9 13
-5 5 4 2 12 -5 16 -10 7 -11 13 -1 30 6 12 9 30 7 39 -3 11 -7 7 -12 -14 -4
-18 -17 -37 -31 -45 -13 -7 -24 -16 -24 -21 0 -19 -30 -5 -59 27 -17 20 -31
33 -31 29 0 -3 -7 -1 -15 6 -8 7 -12 16 -9 21 3 5 2 8 -3 7 -4 -2 -19 5 -33
15 -21 15 -23 19 -10 28 13 9 12 10 -2 5 -12 -4 -33 12 -69 54 -29 33 -57 60
-64 60 -6 0 -25 -10 -42 -23z m471 -243 c4 -10 1 -14 -6 -12 -15 5 -23 28 -10
28 5 0 13 -7 16 -16z m49 9 c-7 -2 -21 -2 -30 0 -10 3 -4 5 12 5 17 0 24 -2
18 -5z m47 -12 c0 -6 -4 -13 -10 -16 -5 -3 -10 1 -10 9 0 9 5 16 10 16 6 0 10
-4 10 -9z m33 -28 c4 -20 4 -39 2 -42 -3 -2 -5 3 -5 13 0 9 -4 14 -10 11 -6
-4 -10 7 -10 24 0 43 16 39 23 -6z m-153 7 c0 -5 -4 -10 -10 -10 -5 0 -10 5
-10 10 0 6 5 10 10 10 6 0 10 -4 10 -10z m-15 -30 c8 -13 -5 -13 -25 0 -13 8
-13 10 2 10 9 0 20 -4 23 -10z"/>
<path d="M6172 5860 c-34 -33 -129 -113 -210 -177 -234 -186 -421 -380 -538
-560 -22 -35 -44 -60 -49 -56 -4 5 -5 1 -3 -7 5 -14 -27 -90 -37 -90 -3 0 -5
9 -5 21 0 11 5 17 10 14 6 -3 10 1 10 9 0 19 -12 20 -29 4 -10 -11 -11 -9 -5
6 5 14 4 17 -5 12 -8 -5 -10 -19 -7 -35 l5 -26 -11 25 c-7 14 -17 29 -23 33
-6 5 -3 7 7 4 9 -3 18 -1 20 4 2 7 12 7 30 0 18 -7 29 -7 33 0 4 5 3 9 -2 8
-4 -1 -16 -1 -25 0 -22 1 -24 31 -3 31 8 0 15 5 15 10 0 6 -7 10 -15 10 -8 0
-15 -4 -15 -9 0 -5 -9 -11 -20 -14 -17 -4 -18 -2 -10 14 6 10 22 22 35 25 14
3 25 13 25 22 0 14 -2 14 -17 0 -10 -9 -24 -13 -31 -11 -6 3 -16 -6 -21 -19
-7 -17 -10 -18 -10 -5 -1 11 -9 17 -26 17 -14 0 -25 5 -25 11 0 6 9 9 20 6 11
-3 20 -1 20 4 0 5 -7 9 -16 9 -9 0 -18 9 -21 20 -20 78 -48 -92 -48 -295 0
-150 6 -234 23 -314 l8 -35 33 77 c128 293 417 620 741 837 182 122 302 226
394 342 l37 46 -84 46 c-46 25 -86 46 -88 46 -2 -1 -32 -28 -67 -60z m-879
-915 c-3 -9 -8 -14 -10 -11 -3 3 -2 9 2 15 9 16 15 13 8 -4z m28 -12 c-12 -20
-14 -14 -5 12 4 9 9 14 11 11 3 -2 0 -13 -6 -23z m-71 -243 c0 -5 -2 -10 -4
-10 -3 0 -8 5 -11 10 -3 6 -1 10 4 10 6 0 11 -4 11 -10z m-20 -49 c-5 -11 -10
-29 -10 -40 0 -32 -17 -25 -22 8 -2 17 -1 28 3 26 11 -7 19 23 12 43 -7 16 -6
16 11 0 13 -14 15 -22 6 -37z"/>
<path d="M4210 5881 c0 -6 4 -13 10 -16 6 -3 7 1 4 9 -7 18 -14 21 -14 7z"/>
<path d="M4299 5835 c-1 -3 -2 -8 -3 -12 -1 -5 -5 -15 -10 -23 -6 -9 -1 -8 12
4 12 10 19 23 16 27 -6 10 -13 12 -15 4z"/>
<path d="M4535 5810 c-3 -5 -1 -10 4 -10 6 0 11 5 11 10 0 6 -2 10 -4 10 -3 0
-8 -4 -11 -10z"/>
<path d="M4320 5760 c0 -5 7 -7 15 -4 8 4 15 8 15 10 0 2 -7 4 -15 4 -8 0 -15
-4 -15 -10z"/>
<path d="M4383 5753 c4 -3 1 -13 -6 -22 -11 -14 -10 -14 5 -2 16 12 16 31 1
31 -4 0 -3 -3 0 -7z"/>
<path d="M4396 5703 c-6 -14 -5 -15 5 -6 7 7 10 15 7 18 -3 3 -9 -2 -12 -12z"/>
<path d="M3457 5530 c-15 -33 -27 -63 -27 -67 0 -5 31 -21 68 -38 690 -302
1085 -526 1335 -755 65 -60 187 -192 235 -255 19 -24 17 -18 -8 35 -65 134
-95 188 -176 310 -89 133 -143 200 -163 200 -7 0 -10 4 -7 9 3 4 -7 19 -22 32
-20 18 -22 19 -9 3 20 -25 14 -34 -25 -34 -16 0 -27 -4 -24 -9 3 -5 15 -7 26
-4 14 4 20 0 20 -11 0 -10 5 -14 10 -11 6 3 10 1 10 -4 0 -16 -20 -13 -26 4
-4 8 -10 13 -14 10 -11 -7 -80 34 -80 47 0 6 -6 8 -14 5 -20 -8 -28 4 -13 21
10 13 9 14 -9 4 -12 -6 -24 -8 -28 -5 -3 3 -6 -1 -6 -11 0 -9 4 -15 9 -12 5 3
12 -1 15 -10 3 -9 12 -14 19 -11 7 3 13 -3 13 -12 0 -13 -19 -4 -76 37 -41 29
-74 58 -73 63 2 5 0 8 -5 8 -20 -3 -32 2 -26 13 4 7 3 8 -4 4 -15 -9 -73 34
-65 47 3 6 2 7 -4 4 -6 -4 -37 10 -69 30 -217 134 -355 213 -540 311 -115 62
-213 112 -215 112 -3 0 -18 -27 -32 -60z m1246 -565 c-3 -9 -8 -14 -10 -11 -3
3 -2 9 2 15 9 16 15 13 8 -4z m20 -32 c-4 -11 -3 -14 5 -9 7 4 12 2 12 -5 0
-7 3 -9 7 -6 7 8 33 -11 33 -25 0 -5 -7 -5 -17 1 -38 21 -56 38 -49 49 11 18
16 14 9 -5z"/>
<path d="M6654 5484 c-317 -163 -674 -378 -880 -529 -82 -61 -87 -63 -109 -49
-20 13 -23 13 -28 -1 -7 -17 -37 -21 -37 -4 0 5 5 7 11 3 8 -4 8 -1 0 14 -10
18 -41 22 -41 5 0 -3 7 -3 15 1 19 7 20 -8 2 -23 -10 -8 -17 -7 -27 2 -10 9
-11 9 -6 -1 4 -7 1 -15 -8 -18 -11 -4 -13 -11 -5 -31 11 -31 11 -42 0 -24 -8
13 -12 13 -27 0 -16 -12 -17 -12 -9 1 14 25 -9 -1 -47 -55 -77 -108 -216 -360
-205 -371 2 -2 16 13 30 35 35 53 214 232 302 302 179 142 373 263 634 394
205 102 654 305 676 305 8 0 16 4 19 8 5 9 -51 125 -63 130 -4 1 -93 -41 -197
-94z m-990 -606 c-3 -5 -9 -6 -14 -3 -4 3 -10 -1 -12 -7 -5 -13 -58 -20 -58
-8 0 15 14 19 28 8 11 -10 16 -9 23 3 4 9 15 16 23 16 8 0 13 -4 10 -9z"/>
<path d="M5271 5294 c0 -11 3 -14 6 -6 3 7 2 16 -1 19 -3 4 -6 -2 -5 -13z"/>
<path d="M5221 5249 c-7 -22 -10 -43 -7 -46 2 -3 10 14 16 37 15 55 7 63 -9 9z"/>
<path d="M3199 5193 c-19 -42 -35 -80 -37 -83 -1 -4 76 -14 172 -24 384 -37
729 -105 971 -190 55 -19 101 -33 103 -31 5 5 -204 109 -318 158 -203 88 -496
180 -706 222 -67 14 -128 25 -136 25 -8 0 -29 -32 -49 -77z"/>
<path d="M5486 5254 c-9 -24 -2 -26 12 -4 7 11 8 20 3 20 -5 0 -12 -7 -15 -16z"/>
<path d="M7055 5263 c-109 -15 -399 -92 -565 -150 -181 -63 -549 -227 -537
-239 2 -3 34 7 71 20 209 79 653 161 1083 201 l72 7 -42 84 c-23 46 -44 83
-47 83 -3 -1 -18 -4 -35 -6z"/>
<path d="M5271 5244 c0 -11 3 -14 6 -6 3 7 2 16 -1 19 -3 4 -6 -2 -5 -13z"/>
<path d="M5350 5198 c1 -17 30 -83 38 -86 6 -2 16 6 22 17 7 14 7 21 0 21 -5
0 -10 -7 -10 -15 0 -8 -5 -15 -11 -15 -6 0 -9 9 -6 20 3 11 1 20 -4 20 -5 0
-9 6 -9 14 0 8 -4 18 -10 21 -5 3 -10 5 -10 3z"/>
<path d="M5435 5190 c3 -5 8 -10 11 -10 2 0 4 5 4 10 0 6 -5 10 -11 10 -5 0
-7 -4 -4 -10z"/>
<path d="M5305 5180 c3 -5 8 -10 11 -10 2 0 4 5 4 10 0 6 -5 10 -11 10 -5 0
-7 -4 -4 -10z"/>
<path d="M5390 5180 c0 -5 5 -10 10 -10 6 0 10 5 10 10 0 6 -4 10 -10 10 -5 0
-10 -4 -10 -10z"/>
<path d="M5280 5150 c0 -5 5 -10 10 -10 6 0 10 5 10 10 0 6 -4 10 -10 10 -5 0
-10 -4 -10 -10z"/>
<path d="M4445 5100 c-3 -6 1 -7 9 -4 18 7 21 14 7 14 -6 0 -13 -4 -16 -10z"/>
<path d="M5356 5084 c-4 -9 -4 -19 -1 -22 2 -3 7 3 11 12 3 9 11 13 17 9 6 -3
7 -1 3 5 -10 17 -23 15 -30 -4z"/>
<path d="M4537 5060 c-3 -11 -3 -20 -1 -20 2 0 8 9 14 20 6 11 7 20 2 20 -6 0
-12 -9 -15 -20z"/>
<path d="M5880 5055 c-7 -8 -19 -15 -26 -15 -8 0 -14 -5 -14 -11 0 -5 13 -2
30 8 17 9 30 21 30 25 0 12 -6 10 -20 -7z"/>
<path d="M4435 5050 c3 -5 13 -6 22 -3 10 4 14 2 10 -4 -4 -6 2 -18 13 -28 19
-17 20 -17 20 3 0 11 -5 24 -12 28 -17 11 -59 14 -53 4z"/>
<path d="M4649 5006 c9 -11 9 -15 -1 -19 -7 -3 -3 -4 9 -4 21 1 21 2 6 19 -19
21 -31 24 -14 4z"/>
<path d="M4595 5000 c-8 -13 5 -13 25 0 13 8 13 10 -2 10 -9 0 -20 -4 -23 -10z"/>
<path d="M4615 4980 c-3 -5 -1 -10 4 -10 6 0 11 5 11 10 0 6 -2 10 -4 10 -3 0
-8 -4 -11 -10z"/>
<path d="M5761 4981 c-8 -6 -9 -11 -3 -15 6 -3 14 -1 17 5 9 14 2 20 -14 10z"/>
<path d="M5620 4962 c0 -17 21 -25 31 -13 5 6 6 9 3 6 -4 -3 -13 0 -21 6 -9 8
-13 8 -13 1z"/>
<path d="M5680 4961 c0 -14 38 -33 50 -26 6 3 9 14 9 23 -1 15 -2 15 -6 0 -6
-22 -17 -23 -37 -2 -9 8 -16 11 -16 5z"/>
<path d="M5670 4922 c11 -22 31 -22 29 1 0 8 -2 8 -6 -1 -4 -10 -9 -9 -20 5
-13 17 -13 16 -3 -5z"/>
<path d="M3320 4907 c-3 -3 -55 -7 -117 -9 -61 -2 -109 -6 -106 -10 2 -5 -5
-8 -15 -8 -11 0 -36 -7 -57 -16 l-37 -15 43 -28 c24 -15 89 -65 144 -110 87
-71 104 -81 130 -76 565 106 983 82 1289 -75 43 -22 80 -39 82 -37 7 7 -122
93 -206 139 -196 106 -526 197 -820 227 -130 14 -324 24 -330 18z"/>
<path d="M6690 4889 c-300 -37 -632 -127 -800 -217 -99 -52 -262 -153 -258
-158 2 -2 37 13 78 33 93 44 251 97 350 117 248 50 613 41 909 -23 l84 -18
135 108 c74 60 140 109 146 109 6 0 -11 12 -39 26 -49 25 -56 26 -290 29 -132
2 -274 0 -315 -6z"/>
<path d="M3025 4500 c-13 -6 -15 -9 -5 -9 8 0 22 4 30 9 18 12 2 12 -25 0z"/>
<path d="M2968 4483 c6 -2 18 -2 25 0 6 3 1 5 -13 5 -14 0 -19 -2 -12 -5z"/>
<path d="M2930 4470 c0 -5 5 -10 10 -10 6 0 10 5 10 10 0 6 -4 10 -10 10 -5 0
-10 -4 -10 -10z"/>
<path d="M3775 4304 c-218 -25 -382 -55 -545 -98 -150 -40 -202 -54 -240 -65
-43 -14 -43 -14 -33 2 4 6 9 21 10 32 2 16 1 17 -6 5 -5 -8 -8 -17 -5 -21 2
-4 -10 -12 -26 -18 -17 -5 -30 -15 -30 -20 0 -6 -27 -18 -60 -28 -33 -9 -60
-20 -60 -26 0 -5 23 -30 51 -55 l51 -46 -53 -13 c-29 -8 -77 -21 -106 -29
l-53 -15 0 -100 c0 -83 3 -99 15 -99 9 0 87 18 173 39 295 74 595 124 947 156
256 24 497 18 805 -20 227 -28 206 -21 239 -81 50 -86 135 -138 258 -153 175
-22 329 42 393 163 l24 44 76 11 c347 50 648 62 930 37 308 -27 612 -77 919
-151 101 -25 190 -45 198 -45 14 0 15 14 9 97 -4 54 -11 100 -16 103 -5 3 -50
16 -99 30 -50 13 -91 27 -91 30 0 3 25 25 55 50 34 28 50 47 42 51 -64 35
-495 156 -672 189 -213 39 -516 58 -690 41 -390 -36 -594 -110 -875 -318 -131
-96 -130 -96 -172 -75 -19 10 -81 52 -139 93 -122 88 -206 140 -274 170 -152
65 -318 108 -507 128 -89 10 -371 13 -443 5z m-838 -180 c-3 -3 -12 -4 -19 -1
-8 3 -5 6 6 6 11 1 17 -2 13 -5z m986 -46 c63 -1 58 -2 -38 -8 -60 -4 -162
-10 -225 -13 l-115 -6 140 18 c77 10 146 17 153 15 8 -2 46 -5 85 -6z m2622 2
c25 -11 -99 -11 -235 0 -91 6 -89 7 60 8 85 0 164 -3 175 -8z"/>
<path d="M3015 4290 c-16 -7 -17 -9 -3 -9 9 -1 20 4 23 9 7 11 7 11 -20 0z"/>
<path d="M2925 4260 c-3 -6 1 -7 9 -4 18 7 21 14 7 14 -6 0 -13 -4 -16 -10z"/>
<path d="M7378 4258 c15 -8 22 -20 22 -40 0 -15 4 -28 9 -28 5 0 12 -8 14 -17
3 -10 5 2 6 26 1 47 -17 71 -54 70 -19 0 -18 -1 3 -11z"/>
<path d="M7308 4253 c6 -2 18 -2 25 0 6 3 1 5 -13 5 -14 0 -19 -2 -12 -5z"/>
<path d="M3012 4220 c0 -14 2 -19 5 -12 2 6 2 18 0 25 -3 6 -5 1 -5 -13z"/>
<path d="M7193 4215 c0 -8 4 -12 9 -9 4 3 8 9 8 15 0 5 -4 9 -8 9 -5 0 -9 -7
-9 -15z"/>
<path d="M7245 4220 c27 -12 43 -12 25 0 -8 5 -22 9 -30 9 -10 0 -8 -3 5 -9z"/>
<path d="M3035 4210 c-8 -13 3 -30 18 -30 7 0 6 4 -3 10 -8 5 -11 13 -6 17 4
4 15 -1 23 -12 14 -17 15 -18 9 -2 -3 10 -6 21 -6 23 0 8 -29 4 -35 -6z"/>
<path d="M5360 4185 c-11 -13 -10 -14 4 -9 9 3 16 10 16 15 0 13 -6 11 -20 -6z"/>
<path d="M2925 4160 c-3 -5 -1 -10 4 -10 6 0 11 5 11 10 0 6 -2 10 -4 10 -3 0
-8 -4 -11 -10z"/>
<path d="M1997 3355 c-15 -15 -17 -56 -17 -405 0 -340 2 -391 16 -404 13 -13
42 -16 158 -16 162 0 240 12 307 46 146 74 173 271 51 375 -39 34 -40 35 -21
48 30 18 59 89 59 144 0 59 -26 113 -76 157 -66 58 -92 64 -285 68 -154 3
-178 2 -192 -13z m325 -215 c23 -29 23 -45 -2 -70 -17 -17 -31 -20 -78 -18
l-57 3 -3 44 c-5 69 0 74 65 69 43 -4 61 -10 75 -28z m37 -286 c27 -35 26 -66
-2 -100 -22 -25 -30 -27 -98 -28 l-74 -1 -3 78 -3 77 80 0 c74 0 81 -2 100
-26z"/>
<path d="M4779 3354 c-9 -11 -58 -82 -110 -158 l-94 -140 -5 150 -5 149 -95 0
-95 0 -2 -395 c-2 -217 1 -401 6 -408 9 -15 157 -22 179 -9 8 6 12 44 12 134
0 147 -6 146 102 9 129 -164 117 -156 224 -156 52 0 96 4 99 10 8 12 -20 58
-95 160 -30 41 -82 114 -114 162 l-59 87 60 93 c33 51 83 131 112 178 28 47
57 93 64 102 19 29 -5 41 -90 46 -67 4 -80 2 -94 -14z"/>
<path d="M5707 3353 c-4 -3 -7 -185 -7 -403 0 -295 3 -399 12 -408 15 -15 344
-17 382 -2 25 9 26 12 26 94 0 113 -4 116 -126 116 l-95 0 1 293 c0 160 1 298
0 305 0 9 -26 12 -93 12 -52 0 -97 -3 -100 -7z"/>
<path d="M6401 3298 c0 -38 -9 -95 -24 -143 -32 -104 -142 -440 -173 -529 -13
-38 -24 -73 -24 -78 0 -4 39 -8 88 -8 l87 0 20 58 20 57 80 0 80 0 26 -54 c14
-30 34 -58 45 -62 28 -11 172 -11 179 0 3 6 -32 128 -78 273 -46 145 -99 316
-117 380 -17 64 -37 124 -44 133 -12 17 -76 34 -133 35 l-32 0 0 -62z m105
-453 l20 -65 -48 0 c-27 0 -47 3 -45 8 2 4 12 33 22 65 10 31 20 57 24 57 3 0
15 -30 27 -65z"/>
<path d="M6953 3353 c-10 -4 -13 -95 -13 -408 l0 -403 23 -6 c33 -9 83 -7 112
4 l26 10 -3 195 c-2 107 -2 195 0 195 1 0 56 -82 121 -182 65 -101 128 -193
139 -205 17 -19 32 -23 80 -23 99 0 93 -32 90 425 l-3 400 -82 3 c-74 2 -83 1
-84 -15 0 -10 0 -106 1 -213 1 -107 -1 -192 -4 -190 -11 12 -107 164 -170 270
-38 63 -77 123 -88 133 -15 12 -36 17 -77 16 -31 0 -62 -3 -68 -6z"/>
<path d="M7718 3349 c-17 -9 -18 -39 -18 -395 0 -247 4 -392 10 -405 10 -17
22 -19 143 -19 200 0 301 34 391 130 107 115 138 261 89 415 -48 148 -174 251
-338 275 -90 13 -255 12 -277 -1z m320 -233 c107 -55 134 -236 48 -322 -34
-34 -88 -54 -148 -54 l-38 0 0 201 0 202 54 -6 c30 -3 68 -12 84 -21z"/>
<path d="M2999 3327 c-106 -30 -183 -100 -236 -213 -26 -54 -28 -69 -28 -174
0 -109 2 -119 32 -183 41 -86 118 -168 185 -197 132 -57 300 -6 391 118 63 85
81 143 81 262 1 98 -1 110 -31 172 -80 169 -242 258 -394 215z m150 -232 c49
-45 66 -101 58 -192 -8 -87 -40 -137 -98 -154 -36 -11 -45 -10 -76 6 -19 11
-46 39 -61 64 -52 89 -30 245 42 291 48 30 89 26 135 -15z"/>
<path d="M3829 3330 c-187 -32 -326 -256 -289 -469 21 -122 110 -251 205 -296
63 -29 177 -32 247 -5 71 26 154 100 191 169 128 234 5 551 -231 600 -58 12
-57 12 -123 1z m128 -232 c57 -53 76 -148 49 -240 -51 -175 -236 -138 -253 51
-8 85 10 143 60 187 35 32 44 36 79 31 22 -3 51 -16 65 -29z"/>
<path d="M5302 3329 c-123 -24 -203 -130 -189 -250 12 -98 60 -154 189 -220
65 -33 84 -58 68 -89 -26 -49 -91 -44 -160 10 l-39 31 -58 -77 -57 -77 34 -29
c122 -104 305 -116 413 -27 56 46 81 101 81 179 0 113 -47 172 -191 241 -63
30 -80 52 -68 89 12 38 60 37 156 -4 12 -5 26 10 59 65 l43 72 -24 19 c-68 55
-176 84 -257 67z"/>
</g>
</svg>
